<?xml version="1.0" standalone="no"?><svg xmlns="http://www.w3.org/2000/svg" viewBox="0 0 1440 320"><path fill="#0099ff" fill-opacity="1" d="M0,32L40,42.7C80,53,160,75,240,101.3C320,128,400,160,480,170.7C560,181,640,171,720,170.7C800,171,880,181,960,202.7C1040,224,1120,256,1200,240C1280,224,1360,160,1400,128L1440,96L1440,320L1400,320C1360,320,1280,320,1200,320C1120,320,1040,320,960,320C880,320,800,320,720,320C640,320,560,320,480,320C400,320,320,320,240,320C160,320,80,320,40,320L0,320Z"></path></svg>