<?xml version="1.0" standalone="no"?><svg xmlns="http://www.w3.org/2000/svg" viewBox="0 0 1440 320"><path fill="#0099ff" fill-opacity="1" d="M0,32L40,80C80,128,160,224,240,256C320,288,400,256,480,250.7C560,245,640,267,720,245.3C800,224,880,160,960,149.3C1040,139,1120,181,1200,202.7C1280,224,1360,224,1400,224L1440,224L1440,320L1400,320C1360,320,1280,320,1200,320C1120,320,1040,320,960,320C880,320,800,320,720,320C640,320,560,320,480,320C400,320,320,320,240,320C160,320,80,320,40,320L0,320Z"></path></svg>